<svg width="198" height="42" viewBox="0 0 198 42" fill="none" xmlns="http://www.w3.org/2000/svg">
<g filter="url(#filter0_d_0_262)">
<path fill-rule="evenodd" clip-rule="evenodd" d="M117.171 5.54401V9.63361H112.477V5.54401H117.171ZM57.296 23.3424V27H43.6448V6.49441H48.1376V23.3424H57.296ZM70.6016 26.3088C69.4496 26.9232 68.1056 27.2304 66.5696 27.2304C64.9952 27.2304 63.632 26.9232 62.48 26.3088C61.328 25.6944 60.44 24.816 59.816 23.6736C59.192 22.5312 58.88 21.1824 58.88 19.6272C58.88 18.072 59.192 16.728 59.816 15.5952C60.44 14.4624 61.328 13.584 62.48 12.96C63.632 12.336 64.9952 12.024 66.5696 12.024C68.1056 12.024 69.4496 12.336 70.6016 12.96C71.7536 13.584 72.6416 14.4624 73.2656 15.5952C73.8896 16.728 74.2016 18.072 74.2016 19.6272C74.2016 21.1824 73.8896 22.5312 73.2656 23.6736C72.6416 24.816 71.7536 25.6944 70.6016 26.3088ZM66.5696 23.9184C65.4752 23.9184 64.64 23.568 64.064 22.8672C63.488 22.1664 63.2 21.0864 63.2 19.6272C63.2 18.1872 63.4928 17.1168 64.0784 16.416C64.664 15.7152 65.4944 15.3648 66.5696 15.3648C67.6256 15.3648 68.4416 15.7152 69.0176 16.416C69.5936 17.1168 69.8816 18.1872 69.8816 19.6272C69.8816 21.0864 69.5936 22.1664 69.0176 22.8672C68.4416 23.568 67.6256 23.9184 66.5696 23.9184ZM89.768 31.6368C88.4336 32.8464 86.4704 33.4512 83.8784 33.4512C81.5744 33.4512 79.5584 33 77.8304 32.0976L78.4928 28.872C79.3568 29.3136 80.2304 29.64 81.1136 29.8512C81.9968 30.0624 82.8704 30.168 83.7344 30.168C84.9824 30.168 85.9136 29.88 86.528 29.304L86.655 29.1759C87.1847 28.6003 87.4496 27.7598 87.4496 26.6544L87.449 24.102L87.4302 24.1329C87.2374 24.426 87.0039 24.7097 86.7296 24.984C86.2496 25.464 85.6688 25.8528 84.9872 26.1504C84.3056 26.448 83.5712 26.5968 82.784 26.5968C81.5168 26.5968 80.3936 26.2944 79.4144 25.6896C78.4352 25.0848 77.6672 24.2352 77.1104 23.1408C76.5536 22.0464 76.2752 20.7696 76.2752 19.3104C76.2752 17.8512 76.5536 16.5792 77.1104 15.4944C77.6672 14.4096 78.4352 13.56 79.4144 12.9456C80.3936 12.3312 81.5168 12.024 82.784 12.024C83.9744 12.024 85.0256 12.3168 85.9376 12.9024L86.1595 13.0527C86.663 13.4125 87.0669 13.836 87.3712 14.3232L87.449 14.457L87.4496 12.3984H91.7696V26.3088C91.7696 28.6512 91.1024 30.4272 89.768 31.6368ZM84.0512 23.2848C82.9952 23.2848 82.1552 22.9296 81.5312 22.2192C80.9072 21.5088 80.5952 20.5392 80.5952 19.3104C80.5952 18.0816 80.9024 17.1168 81.5168 16.416C82.1312 15.7152 82.976 15.3648 84.0512 15.3648C85.1264 15.3648 85.9616 15.72 86.5568 16.4304C87.152 17.1408 87.4496 18.1008 87.4496 19.3104C87.4496 20.5584 87.1472 21.5328 86.5424 22.2336C85.9376 22.9344 85.1072 23.2848 84.0512 23.2848ZM106.256 26.3088C105.104 26.9232 103.76 27.2304 102.224 27.2304C100.65 27.2304 99.2864 26.9232 98.1344 26.3088C96.9824 25.6944 96.0944 24.816 95.4704 23.6736C94.8464 22.5312 94.5344 21.1824 94.5344 19.6272C94.5344 18.072 94.8464 16.728 95.4704 15.5952C96.0944 14.4624 96.9824 13.584 98.1344 12.96C99.2864 12.336 100.65 12.024 102.224 12.024C103.76 12.024 105.104 12.336 106.256 12.96C107.408 13.584 108.296 14.4624 108.92 15.5952C109.544 16.728 109.856 18.072 109.856 19.6272C109.856 21.1824 109.544 22.5312 108.92 23.6736C108.296 24.816 107.408 25.6944 106.256 26.3088ZM102.224 23.9184C101.13 23.9184 100.294 23.568 99.7184 22.8672C99.1424 22.1664 98.8544 21.0864 98.8544 19.6272C98.8544 18.1872 99.1472 17.1168 99.7328 16.416C100.318 15.7152 101.149 15.3648 102.224 15.3648C103.28 15.3648 104.096 15.7152 104.672 16.416C105.248 17.1168 105.536 18.1872 105.536 19.6272C105.536 21.0864 105.248 22.1664 104.672 22.8672C104.096 23.568 103.28 23.9184 102.224 23.9184ZM116.998 27V12.3984H112.65V27H116.998ZM124.889 24.88L124.89 33.2208H120.541V16.5744C120.541 15.8832 120.526 15.1872 120.498 14.4864C120.469 13.7856 120.406 13.0896 120.31 12.3984H124.4L124.676 14.861L124.722 14.748C125.059 13.988 125.6 13.368 126.344 12.888C127.237 12.312 128.278 12.024 129.469 12.024C130.736 12.024 131.854 12.3456 132.824 12.9888C133.794 13.632 134.557 14.5344 135.114 15.696C135.67 16.8576 135.949 18.1968 135.949 19.7136C135.949 21.2304 135.67 22.5552 135.114 23.688C134.557 24.8208 133.794 25.6944 132.824 26.3088C131.854 26.9232 130.736 27.2304 129.469 27.2304C128.278 27.2304 127.237 26.952 126.344 26.3952L126.127 26.2514C125.635 25.9051 125.242 25.4837 124.949 24.9872L124.889 24.88ZM128.23 23.9184C127.136 23.9184 126.301 23.5536 125.725 22.824C125.149 22.0944 124.861 21.0384 124.861 19.656C124.861 18.2736 125.149 17.2128 125.725 16.4736C126.301 15.7344 127.136 15.3648 128.23 15.3648C129.286 15.3648 130.107 15.7488 130.693 16.5168C131.278 17.2848 131.571 18.3504 131.571 19.7136C131.571 21.0768 131.283 22.1184 130.707 22.8384C130.131 23.5584 129.306 23.9184 128.23 23.9184ZM148.923 26.0208C147.819 26.8272 146.298 27.2304 144.358 27.2304C141.574 27.2304 139.376 26.6352 137.763 25.4448L138.944 22.4208C139.712 22.9776 140.571 23.4048 141.522 23.7024C142.472 24 143.427 24.1488 144.387 24.1488C145.136 24.1488 145.712 24.0288 146.115 23.7888C146.518 23.5488 146.72 23.2176 146.72 22.7952C146.72 22.4304 146.576 22.1472 146.288 21.9456C146 21.744 145.491 21.5568 144.762 21.384L142.371 20.808C140.95 20.52 139.909 20.04 139.246 19.368C138.584 18.696 138.253 17.8032 138.253 16.6896C138.253 15.7872 138.517 14.9856 139.045 14.2848C139.573 13.584 140.307 13.032 141.248 12.6288C142.189 12.2256 143.283 12.024 144.531 12.024C145.587 12.024 146.605 12.1824 147.584 12.4992C148.563 12.816 149.456 13.2624 150.262 13.8384L149.053 16.7472C148.304 16.2288 147.541 15.8352 146.763 15.5664C145.986 15.2976 145.232 15.1632 144.502 15.1632C143.792 15.1632 143.235 15.288 142.832 15.5376C142.429 15.7872 142.227 16.1328 142.227 16.5744C142.227 16.9008 142.347 17.16 142.587 17.352C142.827 17.544 143.254 17.7168 143.869 17.8704L146.317 18.4176C147.814 18.7632 148.899 19.2816 149.571 19.9728C150.243 20.664 150.579 21.5856 150.579 22.7376C150.579 24.12 150.027 25.2144 148.923 26.0208ZM158.614 27.2304C159.709 27.2304 160.664 26.9664 161.48 26.4384C162.073 26.0544 162.563 25.5409 162.948 24.898L162.963 24.871L162.963 27H167.197V12.3984H162.819V20.4624C162.819 21.48 162.541 22.296 161.984 22.9104C161.427 23.5248 160.707 23.832 159.824 23.832C159.037 23.832 158.456 23.616 158.082 23.184C157.707 22.752 157.52 22.0848 157.52 21.1824V12.3984H153.171V21.096C153.171 23.1504 153.622 24.6864 154.525 25.704C155.427 26.7216 156.79 27.2304 158.614 27.2304ZM175.059 18.9648V27H170.71V16.5744C170.71 15.8832 170.696 15.1872 170.667 14.4864C170.638 13.7856 170.576 13.0896 170.48 12.3984H174.57L174.815 14.613L174.948 14.3814C175.327 13.755 175.82 13.2428 176.427 12.8448C177.262 12.2976 178.266 12.024 179.437 12.024C180.762 12.024 181.813 12.3648 182.59 13.0464L182.753 13.1978C183.123 13.5637 183.427 14.0171 183.665 14.5581L183.745 14.755L183.841 14.5908C184.248 13.9408 184.786 13.3924 185.456 12.9456C186.378 12.3312 187.424 12.024 188.595 12.024C190.266 12.024 191.504 12.5328 192.31 13.5504C193.117 14.568 193.52 16.104 193.52 18.1584V27H189.171V18.3024C189.171 17.304 189.008 16.5744 188.682 16.1136C188.355 15.6528 187.818 15.4224 187.069 15.4224C186.205 15.4224 185.523 15.7344 185.024 16.3584C184.525 16.9824 184.275 17.8512 184.275 18.9648V27H179.926V18.3024C179.926 17.304 179.763 16.5744 179.437 16.1136C179.11 15.6528 178.582 15.4224 177.853 15.4224C176.97 15.4224 176.283 15.7344 175.794 16.3584C175.304 16.9824 175.059 17.8512 175.059 18.9648Z" fill="#D8D8D8"/>
<path d="M4 0.400024V2.80002H32V0.400024H4Z" fill="#D8D8D8"/>
<path d="M4 5.20001V7.60001H32V5.20001H4Z" fill="#D8D8D8"/>
<path d="M4 10V12.4H32V10H4Z" fill="#D8D8D8"/>
<path d="M4 14.8V17.2H32V14.8H4Z" fill="#D8D8D8"/>
<path d="M4 19.6V22H32V19.6H4Z" fill="#D8D8D8"/>
<path d="M4 24.4V26.8H32V24.4H4Z" fill="#D8D8D8"/>
<path d="M4 29.2V31.6H32V29.2H4Z" fill="#D8D8D8"/>
</g>
<defs>
<filter id="filter0_d_0_262" x="0" y="0.400024" width="197.52" height="41.0512" filterUnits="userSpaceOnUse" color-interpolation-filters="sRGB">
<feFlood flood-opacity="0" result="BackgroundImageFix"/>
<feColorMatrix in="SourceAlpha" type="matrix" values="0 0 0 0 0 0 0 0 0 0 0 0 0 0 0 0 0 0 127 0" result="hardAlpha"/>
<feOffset dy="4"/>
<feGaussianBlur stdDeviation="2"/>
<feComposite in2="hardAlpha" operator="out"/>
<feColorMatrix type="matrix" values="0 0 0 0 0 0 0 0 0 0 0 0 0 0 0 0 0 0 0.25 0"/>
<feBlend mode="normal" in2="BackgroundImageFix" result="effect1_dropShadow_0_262"/>
<feBlend mode="normal" in="SourceGraphic" in2="effect1_dropShadow_0_262" result="shape"/>
</filter>
</defs>
</svg>
